<?xml version="1.0" encoding="UTF-8" standalone="no"?>
<!-- Created with Inkscape (http://www.inkscape.org/) -->

<svg
   width="155mm"
   height="102mm"
   viewBox="0 0 155 102"
   version="1.1"
   id="svg1"
   xml:space="preserve"
   inkscape:version="1.4 (86a8ad7, 2024-10-11)"
   sodipodi:docname="latestlogo.svg"
   inkscape:export-filename="latestlogo.png"
   inkscape:export-xdpi="96"
   inkscape:export-ydpi="96"
   xmlns:inkscape="http://www.inkscape.org/namespaces/inkscape"
   xmlns:sodipodi="http://sodipodi.sourceforge.net/DTD/sodipodi-0.dtd"
   xmlns="http://www.w3.org/2000/svg"
   xmlns:svg="http://www.w3.org/2000/svg"><sodipodi:namedview
     id="namedview1"
     pagecolor="#ffffff"
     bordercolor="#000000"
     borderopacity="0.25"
     inkscape:showpageshadow="2"
     inkscape:pageopacity="0.0"
     inkscape:pagecheckerboard="0"
     inkscape:deskcolor="#d1d1d1"
     inkscape:document-units="mm"
     inkscape:zoom="0.7071068"
     inkscape:cx="384.66608"
     inkscape:cy="277.89296"
     inkscape:window-width="1366"
     inkscape:window-height="705"
     inkscape:window-x="-8"
     inkscape:window-y="-8"
     inkscape:window-maximized="1"
     inkscape:current-layer="layer1"
     showguides="true" /><defs
     id="defs1"><rect
       x="334.92902"
       y="875.89014"
       width="105.55339"
       height="109.10567"
       id="rect2" /><rect
       x="261.34613"
       y="821.59106"
       width="122.80731"
       height="120.77743"
       id="rect1" /></defs><g
     inkscape:label="Layer 1"
     inkscape:groupmode="layer"
     id="layer1"><path
       id="path12"
       style="fill:none;fill-opacity:1;stroke:#00c196;stroke-width:5.762;stroke-dasharray:none;stroke-dashoffset:0;stroke-opacity:1"
       d="M 108.81849,40.586443 93.784371,41.045397 120.57663,7.9517264 148.01533,40.168394 130.52501,40.473271 C 110.79698,137.76368 52.44415,85.57832 41.626416,65.732683 c -0.528268,-0.969132 3.040939,-3.89856 5.226756,-5.35914 3.351647,-2.239596 45.42202,68.110797 61.965318,-19.7871 z m -37.446789,31.24135 c 4.519182,-3.133522 6.464818,-9.22874 7.786165,-14.8929 C 89.749288,2.9503856 24.134021,-12.375321 8.5739053,31.510633 -8.7922253,79.631345 31.955444,105.63487 51.631994,90.74934 48.401875,87.71245 44.390848,82.612778 41.596132,79.637486 14.758115,89.365697 11.809351,26.640042 38.919964,21.902831 c 14.203531,-2.761187 29.740924,10.242752 28.545615,25.673602 -0.39935,5.77513 -1.649383,10.728097 -6.248989,14.835947 3.120454,3.31486 6.058126,6.100553 10.155111,9.415413 z"
       sodipodi:nodetypes="cccccsscccccccccc" /></g></svg>
